{
  "asset": {
    "generator": "glTF-Transform v4.4.2",
    "version": "2.0"
  },
  "accessors": [
    {
      "type": "VEC3",
      "componentType": 5126,
      "count": 9919,
      "max": [
        0.047472625970840454,
        0.5259767174720764,
        0.05086246505379677
      ],
      "min": [
        -0.04739980399608612,
        -0.10402332246303558,
        -0.050850674510002136
      ],
      "bufferView": 0,
      "byteOffset": 0
    },
    {
      "type": "VEC3",
      "componentType": 5126,
      "count": 9919,
      "bufferView": 0,
      "byteOffset": 12
    },
    {
      "type": "VEC2",
      "componentType": 5126,
      "count": 9919,
      "bufferView": 0,
      "byteOffset": 24
    },
    {
      "type": "SCALAR",
      "componentType": 5123,
      "count": 44286,
      "bufferView": 1,
      "byteOffset": 0
    }
  ],
  "bufferViews": [
    {
      "buffer": 0,
      "byteOffset": 0,
      "byteLength": 317408,
      "byteStride": 32,
      "target": 34962
    },
    {
      "buffer": 0,
      "byteOffset": 317408,
      "byteLength": 88572,
      "target": 34963
    }
  ],
  "samplers": [
    {
      "magFilter": 9729,
      "minFilter": 9987,
      "wrapS": 10497,
      "wrapT": 10497
    }
  ],
  "textures": [
    {
      "source": 1,
      "sampler": 0
    },
    {
      "source": 0,
      "sampler": 0
    },
    {
      "source": 2,
      "sampler": 0
    }
  ],
  "images": [
    {
      "name": "ornate_medieval_mace_nor_gl",
      "mimeType": "image/jpeg",
      "uri": "textures/ornate_medieval_mace_nor_gl_1k.jpg"
    },
    {
      "name": "ornate_medieval_mace_diff",
      "mimeType": "image/jpeg",
      "uri": "textures/ornate_medieval_mace_diff_1k.jpg"
    },
    {
      "name": "ornate_medieval_mace_metal-ornate_medieval_mace_rough",
      "mimeType": "image/jpeg",
      "uri": "textures/ornate_medieval_mace_arm_1k.jpg"
    }
  ],
  "buffers": [
    {
      "uri": "ornate_medieval_mace.bin",
      "byteLength": 405980
    }
  ],
  "materials": [
    {
      "name": "ornate_medieval_mace",
      "doubleSided": true,
      "pbrMetallicRoughness": {
        "baseColorTexture": {
          "index": 0
        },
        "metallicRoughnessTexture": {
          "index": 2
        }
      },
      "normalTexture": {
        "index": 1
      }
    }
  ],
  "meshes": [
    {
      "name": "Cube.002",
      "primitives": [
        {
          "attributes": {
            "POSITION": 0,
            "NORMAL": 1,
            "TEXCOORD_0": 2
          },
          "mode": 4,
          "material": 0,
          "indices": 3
        }
      ]
    }
  ],
  "nodes": [
    {
      "name": "ornate_medieval_mace",
      "mesh": 0
    }
  ],
  "scenes": [
    {
      "name": "Scene",
      "nodes": [
        0
      ]
    }
  ],
  "scene": 0
}