{
	"asset":{
		"generator":"Khronos glTF Blender I/O v5.2.40",
		"version":"2.0"
	},
	"scene":0,
	"scenes":[
		{
			"name":"Scene",
			"nodes":[
				0
			]
		}
	],
	"nodes":[
		{
			"mesh":0,
			"name":"objective-board"
		}
	],
	"materials":[
		{
			"name":"poster",
			"pbrMetallicRoughness":{
				"baseColorFactor":[
					0.7454041838645935,
					0.5394794940948486,
					0.06847816705703735,
					1
				],
				"metallicFactor":0,
				"roughnessFactor":0.8500000238418579
			}
		},
		{
			"name":"kenney-wood",
			"pbrMetallicRoughness":{
				"baseColorFactor":[
					0.8962693810462952,
					0.6038273572921753,
					0.3915724754333496,
					1
				],
				"metallicFactor":0,
				"roughnessFactor":0.8500000238418579
			}
		},
		{
			"name":"kenney-metal-medium",
			"pbrMetallicRoughness":{
				"baseColorFactor":[
					0.366252601146698,
					0.4677838087081909,
					0.4677838087081909,
					1
				],
				"metallicFactor":0.6000000238418579,
				"roughnessFactor":0.4000000059604645
			}
		}
	],
	"meshes":[
		{
			"name":"objective-board",
			"primitives":[
				{
					"attributes":{
						"POSITION":0,
						"NORMAL":1
					},
					"indices":2,
					"material":0
				},
				{
					"attributes":{
						"POSITION":3,
						"NORMAL":4
					},
					"indices":5,
					"material":1
				},
				{
					"attributes":{
						"POSITION":6,
						"NORMAL":7
					},
					"indices":2,
					"material":2
				}
			]
		}
	],
	"accessors":[
		{
			"bufferView":0,
			"componentType":5126,
			"count":24,
			"max":[
				0.7099999785423279,
				0.9600000381469727,
				0.015000000596046448
			],
			"min":[
				-0.7099999785423279,
				0.03999999165534973,
				-0.030000001192092896
			],
			"type":"VEC3"
		},
		{
			"bufferView":1,
			"componentType":5126,
			"count":24,
			"type":"VEC3"
		},
		{
			"bufferView":2,
			"componentType":5123,
			"count":36,
			"type":"SCALAR"
		},
		{
			"bufferView":3,
			"componentType":5126,
			"count":96,
			"max":[
				0.75,
				1,
				0.029999999329447746
			],
			"min":[
				-0.75,
				0,
				-0.029999999329447746
			],
			"type":"VEC3"
		},
		{
			"bufferView":4,
			"componentType":5126,
			"count":96,
			"type":"VEC3"
		},
		{
			"bufferView":5,
			"componentType":5123,
			"count":144,
			"type":"SCALAR"
		},
		{
			"bufferView":6,
			"componentType":5126,
			"count":24,
			"max":[
				0.30000001192092896,
				0.9549999833106995,
				0.026999998837709427
			],
			"min":[
				-0.30000001192092896,
				0.9350000023841858,
				0.014999999664723873
			],
			"type":"VEC3"
		},
		{
			"bufferView":7,
			"componentType":5126,
			"count":24,
			"type":"VEC3"
		}
	],
	"bufferViews":[
		{
			"buffer":0,
			"byteLength":288,
			"byteOffset":0,
			"target":34962
		},
		{
			"buffer":0,
			"byteLength":288,
			"byteOffset":288,
			"target":34962
		},
		{
			"buffer":0,
			"byteLength":72,
			"byteOffset":576,
			"target":34963
		},
		{
			"buffer":0,
			"byteLength":1152,
			"byteOffset":648,
			"target":34962
		},
		{
			"buffer":0,
			"byteLength":1152,
			"byteOffset":1800,
			"target":34962
		},
		{
			"buffer":0,
			"byteLength":288,
			"byteOffset":2952,
			"target":34963
		},
		{
			"buffer":0,
			"byteLength":288,
			"byteOffset":3240,
			"target":34962
		},
		{
			"buffer":0,
			"byteLength":288,
			"byteOffset":3528,
			"target":34962
		}
	],
	"buffers":[
		{
			"byteLength":3816,
			"uri":"objective-board.bin"
		}
	]
}
