{
	"asset":{
		"generator":"Khronos glTF Blender I/O v5.2.40",
		"version":"2.0"
	},
	"scene":0,
	"scenes":[
		{
			"name":"Scene",
			"nodes":[
				0
			]
		}
	],
	"nodes":[
		{
			"mesh":0,
			"name":"whiteboard"
		}
	],
	"materials":[
		{
			"name":"board",
			"pbrMetallicRoughness":{
				"baseColorFactor":[
					0.8879231214523315,
					0.9046611785888672,
					0.8713670969009399,
					1
				],
				"metallicFactor":0,
				"roughnessFactor":0.8500000238418579
			}
		},
		{
			"name":"kenney-metal",
			"pbrMetallicRoughness":{
				"baseColorFactor":[
					0.7379103899002075,
					0.8227857351303101,
					0.838798999786377,
					1
				],
				"metallicFactor":0.6000000238418579,
				"roughnessFactor":0.4000000059604645
			}
		}
	],
	"meshes":[
		{
			"name":"whiteboard",
			"primitives":[
				{
					"attributes":{
						"POSITION":0,
						"NORMAL":1
					},
					"indices":2,
					"material":0
				},
				{
					"attributes":{
						"POSITION":3,
						"NORMAL":4
					},
					"indices":5,
					"material":1
				}
			]
		}
	],
	"accessors":[
		{
			"bufferView":0,
			"componentType":5126,
			"count":24,
			"max":[
				3.1600000858306885,
				1.4600000381469727,
				0.015000000596046448
			],
			"min":[
				-3.1600000858306885,
				0.04000002145767212,
				-0.030000001192092896
			],
			"type":"VEC3"
		},
		{
			"bufferView":1,
			"componentType":5126,
			"count":24,
			"type":"VEC3"
		},
		{
			"bufferView":2,
			"componentType":5123,
			"count":36,
			"type":"SCALAR"
		},
		{
			"bufferView":3,
			"componentType":5126,
			"count":120,
			"max":[
				3.200000047683716,
				1.5,
				0.030000001192092896
			],
			"min":[
				-3.200000047683716,
				0,
				-0.029999999329447746
			],
			"type":"VEC3"
		},
		{
			"bufferView":4,
			"componentType":5126,
			"count":120,
			"type":"VEC3"
		},
		{
			"bufferView":5,
			"componentType":5123,
			"count":180,
			"type":"SCALAR"
		}
	],
	"bufferViews":[
		{
			"buffer":0,
			"byteLength":288,
			"byteOffset":0,
			"target":34962
		},
		{
			"buffer":0,
			"byteLength":288,
			"byteOffset":288,
			"target":34962
		},
		{
			"buffer":0,
			"byteLength":72,
			"byteOffset":576,
			"target":34963
		},
		{
			"buffer":0,
			"byteLength":1440,
			"byteOffset":648,
			"target":34962
		},
		{
			"buffer":0,
			"byteLength":1440,
			"byteOffset":2088,
			"target":34962
		},
		{
			"buffer":0,
			"byteLength":360,
			"byteOffset":3528,
			"target":34963
		}
	],
	"buffers":[
		{
			"byteLength":3888,
			"uri":"whiteboard.bin"
		}
	]
}
