{
	"asset":{
		"generator":"Khronos glTF Blender I/O v5.2.40",
		"version":"2.0"
	},
	"scene":0,
	"scenes":[
		{
			"name":"Scene",
			"nodes":[
				0
			]
		}
	],
	"nodes":[
		{
			"mesh":0,
			"name":"window"
		}
	],
	"materials":[
		{
			"alphaMode":"BLEND",
			"name":"glass",
			"pbrMetallicRoughness":{
				"baseColorFactor":[
					0.6239603757858276,
					0.7758222222328186,
					0.8879231214523315,
					0.75
				],
				"metallicFactor":0,
				"roughnessFactor":0.8500000238418579
			}
		},
		{
			"name":"kenney-metal",
			"pbrMetallicRoughness":{
				"baseColorFactor":[
					0.7379103899002075,
					0.8227857351303101,
					0.838798999786377,
					1
				],
				"metallicFactor":0.6000000238418579,
				"roughnessFactor":0.4000000059604645
			}
		}
	],
	"meshes":[
		{
			"name":"window",
			"primitives":[
				{
					"attributes":{
						"POSITION":0,
						"NORMAL":1
					},
					"indices":2,
					"material":0
				},
				{
					"attributes":{
						"POSITION":3,
						"NORMAL":4
					},
					"indices":5,
					"material":1
				}
			]
		}
	],
	"accessors":[
		{
			"bufferView":0,
			"componentType":5126,
			"count":24,
			"max":[
				0.699999988079071,
				1.1500000953674316,
				0.004999999888241291
			],
			"min":[
				-0.699999988079071,
				0.050000011920928955,
				-0.004999999888241291
			],
			"type":"VEC3"
		},
		{
			"bufferView":1,
			"componentType":5126,
			"count":24,
			"type":"VEC3"
		},
		{
			"bufferView":2,
			"componentType":5123,
			"count":36,
			"type":"SCALAR"
		},
		{
			"bufferView":3,
			"componentType":5126,
			"count":144,
			"max":[
				0.75,
				1.1999999284744263,
				0.029999999329447746
			],
			"min":[
				-0.75,
				0,
				-0.029999999329447746
			],
			"type":"VEC3"
		},
		{
			"bufferView":4,
			"componentType":5126,
			"count":144,
			"type":"VEC3"
		},
		{
			"bufferView":5,
			"componentType":5123,
			"count":216,
			"type":"SCALAR"
		}
	],
	"bufferViews":[
		{
			"buffer":0,
			"byteLength":288,
			"byteOffset":0,
			"target":34962
		},
		{
			"buffer":0,
			"byteLength":288,
			"byteOffset":288,
			"target":34962
		},
		{
			"buffer":0,
			"byteLength":72,
			"byteOffset":576,
			"target":34963
		},
		{
			"buffer":0,
			"byteLength":1728,
			"byteOffset":648,
			"target":34962
		},
		{
			"buffer":0,
			"byteLength":1728,
			"byteOffset":2376,
			"target":34962
		},
		{
			"buffer":0,
			"byteLength":432,
			"byteOffset":4104,
			"target":34963
		}
	],
	"buffers":[
		{
			"byteLength":4536,
			"uri":"window.bin"
		}
	]
}
