{
  "asset": {
    "generator": "Khronos glTF Blender I/O v1.8.19",
    "version": "2.0"
  },
  "scene": 0,
  "scenes": [
    {
      "name": "Scene",
      "nodes": [
        0
      ]
    }
  ],
  "nodes": [
    {
      "mesh": 0,
      "name": "sphere_gltf"
    }
  ],
  "materials": [
    {
      "doubleSided": true,
      "name": "thatch_roof_angled",
      "normalTexture": {
        "index": 0
      },
      "pbrMetallicRoughness": {
        "baseColorTexture": {
          "index": 1
        },
        "metallicFactor": 0,
        "metallicRoughnessTexture": {
          "index": 2
        }
      }
    }
  ],
  "meshes": [
    {
      "name": "Sphere.001",
      "primitives": [
        {
          "attributes": {
            "POSITION": 0,
            "NORMAL": 1,
            "TEXCOORD_0": 2
          },
          "indices": 3,
          "material": 0
        }
      ]
    }
  ],
  "textures": [
    {
      "sampler": 0,
      "source": 0
    },
    {
      "sampler": 0,
      "source": 1
    },
    {
      "sampler": 0,
      "source": 2
    }
  ],
  "images": [
    {
      "mimeType": "image/jpeg",
      "name": "thatch_roof_angled_nor_gl_8k",
      "uri": "textures/thatch_roof_angled_nor_gl_1k.jpg"
    },
    {
      "mimeType": "image/jpeg",
      "name": "thatch_roof_angled_diff_8k",
      "uri": "textures/thatch_roof_angled_diff_1k.jpg"
    },
    {
      "mimeType": "image/jpeg",
      "name": "thatch_roof_angled_rough_8k",
      "uri": "textures/thatch_roof_angled_rough_1k.jpg"
    }
  ],
  "accessors": [
    {
      "bufferView": 0,
      "componentType": 5126,
      "count": 53827,
      "max": [
        0.27125975489616394,
        0.2704695463180542,
        0.27028390765190125
      ],
      "min": [
        -0.27134156227111816,
        -0.2704448699951172,
        -0.2702833116054535
      ],
      "type": "VEC3"
    },
    {
      "bufferView": 1,
      "componentType": 5126,
      "count": 53827,
      "type": "VEC3"
    },
    {
      "bufferView": 2,
      "componentType": 5126,
      "count": 53827,
      "type": "VEC2"
    },
    {
      "bufferView": 3,
      "componentType": 5123,
      "count": 322170,
      "type": "SCALAR"
    }
  ],
  "bufferViews": [
    {
      "buffer": 0,
      "byteLength": 645924,
      "byteOffset": 0
    },
    {
      "buffer": 0,
      "byteLength": 645924,
      "byteOffset": 645924
    },
    {
      "buffer": 0,
      "byteLength": 430616,
      "byteOffset": 1291848
    },
    {
      "buffer": 0,
      "byteLength": 644340,
      "byteOffset": 1722464
    }
  ],
  "samplers": [
    {
      "magFilter": 9729,
      "minFilter": 9987
    }
  ],
  "buffers": [
    {
      "byteLength": 2366804,
      "uri": "thatch_roof_angled.bin"
    }
  ]
}